<svg width="32" height="32" viewBox="0 0 32 32" fill="none" xmlns="http://www.w3.org/2000/svg">
<path d="M5.29293 31.8656C6.28934 31.8656 7.09708 31.0838 7.09708 30.1194C7.09708 29.1551 6.28934 28.3733 5.29293 28.3733C4.29653 28.3733 3.48878 29.1551 3.48878 30.1194C3.48878 31.0838 4.29653 31.8656 5.29293 31.8656Z" fill="black"/>
<path d="M13.7982 31.8656C14.7946 31.8656 15.6023 31.0838 15.6023 30.1194C15.6023 29.1551 14.7946 28.3733 13.7982 28.3733C12.8017 28.3733 11.994 29.1551 11.994 30.1194C11.994 31.0838 12.8017 31.8656 13.7982 31.8656Z" fill="black"/>
<path d="M0.00224709 17.1945L3.70889 27.5398C3.72351 27.6219 3.80506 27.7768 3.89146 27.7778H15.2682C15.3543 27.7782 15.4306 27.7115 15.4383 27.6284C15.4383 27.6284 15.4463 15.6334 15.4463 15.5563C15.4463 15.4794 15.5162 15.4053 15.6023 15.4053H16.9769C17.0633 15.4053 17.1329 15.3376 17.1329 15.2543V14.3961C17.1329 14.3125 17.0629 14.2451 16.9769 14.2451H14.254C14.1676 14.2451 14.0979 14.3128 14.0979 14.3961V16.8686C14.0979 16.9523 14.028 17.02 13.9419 17.02H0.132009C0.0459268 17.0196 -0.0123767 17.1124 0.00224709 17.1945ZM14.1667 25.7496C14.1667 25.8329 14.0967 25.9006 14.0107 25.9006H4.48938C4.40297 25.9006 4.33337 25.8328 4.33337 25.7496V24.9939C4.33337 24.9103 4.40329 24.8429 4.48938 24.8429H14.0107C14.0968 24.8429 14.1667 24.9106 14.1667 24.9939V25.7496H14.1667ZM14.1667 23.7366C14.1667 23.82 14.0967 23.8876 14.0107 23.8876H3.64477C3.55837 23.8876 3.48877 23.8199 3.48877 23.7366V22.981C3.48877 22.8973 3.55869 22.83 3.64477 22.83H14.0103C14.0964 22.83 14.1663 22.8976 14.1663 22.981V23.7366H14.1667ZM14.1667 21.7418C14.1667 21.8253 14.0967 21.8928 14.0107 21.8928H2.92457C2.83817 21.8928 2.76856 21.8252 2.76856 21.7418V20.9862C2.76856 20.9026 2.83849 20.8353 2.92457 20.8353H14.0107C14.0968 20.8353 14.1667 20.9029 14.1667 20.9862V21.7418H14.1667ZM2.0672 19.0314C2.0672 18.9481 2.13712 18.8805 2.22321 18.8805H14.0103C14.0964 18.8805 14.1663 18.9482 14.1663 19.0314V19.7871C14.1663 19.8705 14.0964 19.9381 14.0103 19.9381H2.22321C2.1368 19.9381 2.0672 19.8704 2.0672 19.7871V19.0314Z" fill="black"/>
<path d="M22.79 5.19209C24.2714 5.19209 25.4723 4.0298 25.4723 2.59604C25.4723 1.16229 24.2714 0 22.79 0C21.3086 0 20.1077 1.16229 20.1077 2.59604C20.1077 4.0298 21.3086 5.19209 22.79 5.19209Z" fill="black"/>
<path d="M29.3588 31.0162C29.5105 31.606 30.0573 32 30.6583 32C30.7658 32 30.8748 31.9876 30.9835 31.9612C31.7016 31.788 32.1388 31.0842 31.9599 30.3891L28.5964 17.3281C28.9506 17.2153 29.5777 16.8145 29.3983 15.5628L27.5659 5.84196C27.5079 5.53466 27.2194 5.32835 26.921 5.38101L22.7829 6.15049C22.7497 6.15494 22.717 6.16113 22.684 6.16792L22.6257 6.17825C22.5842 6.18566 22.5451 6.19864 22.5081 6.21459C22.1698 6.3319 21.8786 6.5751 21.7194 6.91763L20.096 10.4709C20.096 10.4709 18.1893 10.9047 17.839 10.9857L17.0962 11.1535C16.3752 11.3163 15.927 12.0137 16.0956 12.7111C16.2397 13.3098 16.7908 13.7138 17.3996 13.7138C17.5004 13.7138 17.6027 13.7025 17.7049 13.6795L20.1093 13.1367C20.1747 13.1219 20.2352 13.0982 20.2956 13.0749L21.3948 12.824C21.8067 12.7274 22.149 12.4523 22.323 12.0778L22.9328 10.7696L24.0341 16.7764L20.3201 21.8217C20.1766 22.0164 20.0917 22.246 20.0745 22.4848L19.4938 30.6132C19.4428 31.3277 20.0001 31.9471 20.7383 31.9969C20.7697 31.9989 20.8009 31.9998 20.832 31.9998C21.5301 31.9998 22.1187 31.4764 22.1679 30.792L22.7227 23.0287L26.1152 18.4207L29.3588 31.0162Z" fill="black"/>
</svg>
