<?xml version="1.0" encoding="UTF-8"?><svg xmlns="http://www.w3.org/2000/svg" xmlns:xlink="http://www.w3.org/1999/xlink" version="1.1" id="Layer_1" x="0px" y="0px" viewBox="0 0 29 29" xml:space="preserve"><style type="text/css">.st0{fill:none;stroke:#000000;stroke-miterlimit:10;} .st1{fill:none;stroke:#000000;stroke-width:2;stroke-miterlimit:10;} .st2{fill:none;stroke:#000000;stroke-width:2;stroke-linecap:round;stroke-linejoin:round;stroke-miterlimit:10;}</style><path d="M10 3v3h9V3a1 1 0 0 0-1-1h-7a1 1 0 0 0-1 1z"/><path d="M4 5v1h21V5a1 1 0 0 0-1-1H5a1 1 0 0 0-1 1z"/><path d="M6 8l1.812 17.209A2 2 0 0 0 9.801 27H19.2a2 2 0 0 0 1.989-1.791L23 8H6zm4.577 16.997a.999.999 0 0 1-1.074-.92l-1-13a1 1 0 0 1 .92-1.074.989.989 0 0 1 1.074.92l1 13a1 1 0 0 1-.92 1.074zM15.5 24a1 1 0 0 1-2 0V11a1 1 0 0 1 2 0v13zm3.997.077a.999.999 0 1 1-1.994-.154l1-13a.985.985 0 0 1 1.074-.92 1 1 0 0 1 .92 1.074l-1 13z"/><metadata><rdf:RDF xmlns:rdf="http://www.w3.org/1999/02/22-rdf-syntax-ns#" xmlns:rdfs="http://www.w3.org/2000/01/rdf-schema#" xmlns:dc="http://purl.org/dc/elements/1.1/"><rdf:Description about="https://iconscout.com/legal#licenses" dc:title="delete,recycle,bin,waste,trash" dc:description="delete,recycle,bin,waste,trash" dc:publisher="Iconscout" dc:date="2017-10-04" dc:format="image/svg+xml" dc:language="en"><dc:creator><rdf:Bag><rdf:li>Jemis Mali</rdf:li></rdf:Bag></dc:creator></rdf:Description></rdf:RDF></metadata></svg>