<svg height="512" viewBox="0 0 58 54" width="512" xmlns="http://www.w3.org/2000/svg"><g id="Page-1" fill="none" fill-rule="evenodd"><g id="058---Inbox" fill="rgb(0,0,0)" fill-rule="nonzero"><path id="Shape" d="m12 10c-1.2567696-.00268646-2.4820721.3929112-3.5 1.13.07805104.0418453.14893902.0958552.21.16l19.96 19.96 1.21 1.21c1.1712702 1.1698135 3.0687298 1.1698135 4.24 0l1.21-1.21 19.96-19.96c.061061-.0641448.131949-.1181547.21-.16-1.0179279-.7370888-2.2432304-1.13268646-3.5-1.13z"/><path id="Shape" d="m7.29 12.71c-.06414479-.061061-.11815467-.131949-.16-.21-.73708881 1.0179279-1.13268646 2.2432304-1.13 3.5v32c-.00644565 1.241887.38229449 2.4536355 1.11 3.46.04098127-.0729769.09141696-.1402245.15-.2l19.28-19.3z"/><path id="Shape" d="m36.04 33.38-.5.5c-1.958649 1.946472-5.121351 1.946472-7.08 0l-.5-.5-19.29 19.29c-.0612477.0682309-.13621755.1227544-.22.16 1.02525603.7644386 2.2711369 1.1750528 3.55 1.17h40c1.2788631.0050528 2.524744-.4055614 3.55-1.17-.0837824-.0372456-.1587523-.0917691-.22-.16z"/><path id="Shape" d="m56.71 12.71-19.25 19.25 19.28 19.3c.058583.0597755.1090187.1270231.15.2.7277055-1.0063645 1.1164457-2.218113 1.11-3.46v-32c.0026865-1.2567696-.3929112-2.4820721-1.13-3.5-.0418453.078051-.0958552.148939-.16.21z"/><path id="Shape" d="m7.79 9.21-6.5-6.5c-.06414479-.06106098-.11815467-.13194896-.16-.21-.73708881 1.0179279-1.13268646 2.24323037-1.13 3.5v32c-.00668469 1.2372801.37836552 2.4449376 1.1 3.45.04098127-.0729769.09141696-.1402245.15-.2l2.75-2.75v-22.5c-.00025859-2.7675926 1.43419621-5.3374997 3.79-6.79z"/><path id="Shape" d="m2.45 42.83c.47057897.3527507.99361085.6294514 1.55.82v-2.31l-1.33 1.33c-.06657264.0620587-.14044881.1157868-.22.16z"/><path id="Shape" d="m6 0c-1.25676963-.00268646-2.4820721.39291119-3.5 1.13.07805104.04184533.14893902.09585521.21.16l7.04 7.04c.7292319-.22210127 1.4877028-.33334367 2.25-.33h30.58l6.71-6.71c.061061-.06414479.131949-.11815467.21-.16-1.0179279-.73708881-2.2432304-1.13268646-3.5-1.13z"/><path id="Shape" d="m50.71 2.71-5.29 5.29h6.5800136l-.0000136-2c.0026865-1.25676963-.3929112-2.4820721-1.13-3.5-.0418453.07805104-.0958552.14893902-.16.21z"/></g></g></svg>