<?xml version="1.0" encoding="iso-8859-1"?>
<!-- Generator: Adobe Illustrator 19.0.0, SVG Export Plug-In . SVG Version: 6.00 Build 0)  -->
<svg version="1.1" id="Capa_1" xmlns="http://www.w3.org/2000/svg" xmlns:xlink="http://www.w3.org/1999/xlink" x="0px" y="0px"
	 viewBox="0 0 464 464" style="enable-background:new 0 0 464 464;" xml:space="preserve">
<path style="fill:#00F2A9;" d="M360,152v-32c0-8.8-7.2-16-16-16h-48c0-35.2-28.8-64-64-64s-64,28.8-64,64h-48c-8.8,0-16,7.2-16,16
	v32c0,8.8,7.2,16,16,16h224C352.8,168,360,160.8,360,152z M200,104c0-17.6,14.4-32,32-32s32,14.4,32,32H200z"/>
<g>
	<path style="fill:#322153;" d="M344,64h-40.8c-4-36-34.4-64-71.2-64s-67.2,28-71.2,64H120c-13.6,0-24,10.4-24,24v8.8
		c-18.4,4-32,20-32,39.2v288c0,22.4,17.6,40,40,40h256c22.4,0,40-17.6,40-40V136c0-19.2-13.6-35.2-32-39.2V88
		C368,74.4,357.6,64,344,64z M112,88c0-4.8,3.2-8,8-8h48c4.8,0,8-3.2,8-8c0-31.2,24.8-56,56-56s56,24.8,56,56c0,4.8,3.2,8,8,8h48
		c4.8,0,8,3.2,8,8v32c0,4.8-3.2,8-8,8H120c-4.8,0-8-3.2-8-8V88z M384,136v288c0,13.6-10.4,24-24,24H104c-13.6,0-24-10.4-24-24V136
		c0-10.4,6.4-19.2,16-22.4v6.4c0,13.6,10.4,24,24,24h224c13.6,0,24-10.4,24-24v-6.4C377.6,116.8,384,125.6,384,136z"/>
	<path style="fill:#322153;" d="M200,80h32c4.8,0,8-3.2,8-8s-3.2-8-8-8h-22.4c3.2-9.6,12-16,22.4-16c13.6,0,24,10.4,24,24
		c0,4.8,3.2,8,8,8s8-3.2,8-8c0-22.4-17.6-40-40-40s-40,17.6-40,40C192,76.8,195.2,80,200,80z"/>
	<path style="fill:#322153;" d="M168,208h128c4.8,0,8-3.2,8-8s-3.2-8-8-8H168c-4.8,0-8,3.2-8,8S163.2,208,168,208z"/>
	<path style="fill:#322153;" d="M328,256H136c-4.8,0-8,3.2-8,8s3.2,8,8,8h192c4.8,0,8-3.2,8-8S332.8,256,328,256z"/>
	<path style="fill:#322153;" d="M136,304h64c4.8,0,8-3.2,8-8s-3.2-8-8-8h-64c-4.8,0-8,3.2-8,8S131.2,304,136,304z"/>
	<path style="fill:#322153;" d="M328,288h-96c-4.8,0-8,3.2-8,8s3.2,8,8,8h96c4.8,0,8-3.2,8-8S332.8,288,328,288z"/>
	<path style="fill:#322153;" d="M136,336h128c4.8,0,8-3.2,8-8s-3.2-8-8-8H136c-4.8,0-8,3.2-8,8S131.2,336,136,336z"/>
	<path style="fill:#322153;" d="M328,320h-32c-4.8,0-8,3.2-8,8s3.2,8,8,8h32c4.8,0,8-3.2,8-8S332.8,320,328,320z"/>
	<path style="fill:#322153;" d="M136,368h96c4.8,0,8-3.2,8-8s-3.2-8-8-8h-96c-4.8,0-8,3.2-8,8S131.2,368,136,368z"/>
	<path style="fill:#322153;" d="M328,352h-64c-4.8,0-8,3.2-8,8s3.2,8,8,8h64c4.8,0,8-3.2,8-8S332.8,352,328,352z"/>
	<path style="fill:#322153;" d="M168,384h-32c-4.8,0-8,3.2-8,8s3.2,8,8,8h32c4.8,0,8-3.2,8-8S172.8,384,168,384z"/>
	<path style="fill:#322153;" d="M328,384H200c-4.8,0-8,3.2-8,8s3.2,8,8,8h128c4.8,0,8-3.2,8-8S332.8,384,328,384z"/>
</g>
<g>
</g>
<g>
</g>
<g>
</g>
<g>
</g>
<g>
</g>
<g>
</g>
<g>
</g>
<g>
</g>
<g>
</g>
<g>
</g>
<g>
</g>
<g>
</g>
<g>
</g>
<g>
</g>
<g>
</g>
</svg>
