<svg xmlns="http://www.w3.org/2000/svg" viewBox="0 0 64 64"><path fill="#222" d="M32.12,52.61c.81,0,3.41-1.08,7.13-4.52,5.91-5.44,12.81-15,12.81-24a20.06,20.06,0,0,0-40.12,0C11.94,38.23,28.41,52.31,32.12,52.61ZM32,12.14a9.56,9.56,0,1,1-9.56,9.56A9.57,9.57,0,0,1,32,12.14ZM53.8,54.49c0,1.87-7.69,5.5-21.8,5.5s-21.8-3.63-21.8-5.5c0-1.25,3.6-3.57,11.62-4.77a1.34,1.34,0,0,0,.4-.13c3.76,3.55,7.44,5.83,9.66,6h.28c3,0,7.37-3.69,9.13-5.31.22-.2.44-.42.66-.64a2,2,0,0,0,.23.06C50.2,50.92,53.8,53.24,53.8,54.49Z"/></svg>