<svg xmlns="http://www.w3.org/2000/svg" width="64" height="64" viewBox="0 0 16.933 16.933"><path d="m 6.447146,0.52916613 c -0.4891702,0 -0.766223,0.42155 -0.8903801,0.89504007 v 0.42788 H 16.404166 v -0.42788 c 0,-0.48949009 -0.39914,-0.89504007 -0.88832,-0.89504007 z M 5.5567659,2.3812562 V 3.1750061 H 16.404166 V 2.3812562 Z m 0,1.3229099 v 3.0763001 c 0,0.48949 0.4012099,0.8924499 0.8903801,0.8924499 h 9.0687 c 0.48918,0 0.88832,-0.4029599 0.88832,-0.8924499 V 3.7041661 Z m 1.8903201,1.07384 h 1.5120598 c 0.3151,0 0.56637,0.2623601 0.56637,0.5782601 v 0.69401 c 0,0.3179699 -0.25127,0.5798101 -0.56637,0.5798101 H 7.447086 c -0.3151,0 -0.56637,-0.2617603 -0.56637,-0.5798101 v -0.69401 c 0,-0.3179701 0.25127,-0.5782601 0.56637,-0.5782601 z m 0,0.5291701 c -0.019899,0 -0.0367,0.022 -0.0367,0.0491 v 0.69401 c 0,0.0323 0.016801,0.0506 0.0367,0.0506 h 1.5120598 c 0.019899,0 0.0367,-0.019399 0.0367,-0.0506 v -0.69401 c 0,-0.0302 -0.016801,-0.0491 -0.0367,-0.0491 z M 6.0693969,10.054687 c -0.5126299,0 -1.40629,0.389979 -2.0019399,0.69505 0.1026999,0.1881 0.1663999,0.40044 0.1663999,0.6289 v 3.56671 c 0.3369501,-0.0587 0.67876,-0.11261 1.0593599,-0.12713 0.3270901,0 0.9384901,0.46353 1.3358402,0.74414 0.5662301,0.39969 1.1761499,0.84181 1.8376098,0.84181 0.1991101,0 0.39912,-0.0655 0.6625,-0.16381 1.4474902,-0.54114 4.5006602,-2.26839 6.2792002,-3.30884 0.45004,-0.2489 0.59789,-0.8252 0.34365,-1.26556 -0.24394,-0.42251 -0.73913,-0.52541 -1.2206,-0.36122 l -3.32228,1.15032 c 0.0238,0.21615 -0.0149,0.44024 -0.13126,0.64182 -0.29087,0.5038 -0.94159,0.67793 -1.4453901,0.38706 l -1.60558,-0.92604 c -0.33191,-0.16943 -0.0458,-0.66147 0.2656101,-0.45682 l 1.60352,0.92552 c 0.25785,0.14887 0.5741,0.0646 0.72296,-0.19327 0.14887,-0.25784 0.0641,-0.57357 -0.19379,-0.72243 -1.18074,-0.68171 -3.2748099,-2.05621 -4.3558101,-2.05621 z m -4.74493,0.52917 c -0.44538991,0 -0.79529991,0.36014 -0.79529991,0.7953 v 3.70261 c 0,0.43342 0.35016,0.79192 0.79013991,0.79479 H 2.911967 c 0.4831301,0 0.7927198,-0.41047 0.7927198,-0.7953 v -3.70262 c 0,-0.44464 -0.3596698,-0.79478 -0.7921998,-0.79478 z m 0.52865,3.70468 c 0.14613,0 0.2645901,0.11846 0.2645901,0.26458 0,0.14613 -0.1184601,0.26459 -0.2645901,0.26459 -0.14612,0 -0.26458,-0.11846 -0.26458,-0.26459 0,-0.14612 0.11846,-0.26458 0.26458,-0.26458 z" color="#000" font-family="sans-serif" font-weight="400" overflow="visible" white-space="normal" style="line-height:normal;font-variant-ligatures:normal;font-variant-position:normal;font-variant-caps:normal;font-variant-numeric:normal;font-variant-alternates:normal;font-feature-settings:normal;text-indent:0;text-align:start;text-decoration-line:none;text-decoration-style:solid;text-decoration-color:#000;text-transform:none;text-orientation:mixed;shape-padding:0;isolation:auto;mix-blend-mode:normal"/></svg>