<svg xmlns="http://www.w3.org/2000/svg" viewBox="0 0 32 32"><g data-name="Mail Box"><path d="M27 8H5a3 3 0 0 0-3 3v6H30V11A3 3 0 0 0 27 8zm-2 6H24a1 1 0 0 1 0-2h1a1 1 0 0 1 0 2zM2 21a3 3 0 0 0 3 3H7V19.85A1.64 1.64 0 0 1 7.23 19H2zM25 19.85V24h2a3 3 0 0 0 3-3V19H24.78A1.73 1.73 0 0 1 25 19.85zM24 4a2 2 0 0 0-2-2H10A2 2 0 0 0 8 4V7H24zM23 19H9a.94.94 0 0 0-1 .85v8.46A1.87 1.87 0 0 0 10 30H22a1.87 1.87 0 0 0 2-1.69V19.85A.94.94 0 0 0 23 19zm-3 8H12a1 1 0 0 1 0-2h8a1 1 0 0 1 0 2zm0-3H12a1 1 0 0 1 0-2h8a1 1 0 0 1 0 2z"/></g></svg>