<svg xmlns="http://www.w3.org/2000/svg" width="32" height="32" viewBox="0 0 32 32"><path fill-rule="evenodd" d="m 16.199219,4.0449219 2.451172,1.046875 -10.3886722,4.4433593 c -0.00991,0.00424 -0.019681,0.0088 -0.029297,0.013672 L 5.7792969,8.5 Z m 3.722656,1.5917969 2.974609,1.2714843 -10.582031,4.5253909 c -0.200848,0.08598 -0.322635,0.292384 -0.300781,0.509765 -0.0018,0.01948 -0.0024,0.03904 -0.002,0.05859 l 0,5.349609 -1.083985,-1.626953 c -0.13979,-0.2093 -0.413356,-0.282083 -0.638672,-0.169921 l -1.2773432,0.638671 0,-5.890625 z M 24.167969,7.4511719 26.621094,8.5 16.199219,12.955078 13.748047,11.908203 24.138672,7.4648438 c 0.0099,-0.00424 0.01968,-0.0088 0.0293,-0.013672 z m -19.1562502,1.8066406 3,1.2832035 0,6.460937 c -3.53e-4,0.37239 0.3918806,0.614497 0.7246093,0.447266 l 1.6035159,-0.802735 1.728515,2.591797 c 0.05495,0.105426 0.145656,0.187826 0.25586,0.232422 0.01472,0.0059 0.02971,0.01113 0.04492,0.01563 l 0.002,0.002 c 0.03189,0.0091 0.0646,0.01497 0.09766,0.01758 0.01688,0.0015 0.03383,0.0022 0.05078,0.002 0.0163,1.45e-4 0.03259,-5.07e-4 0.04883,-0.002 0.01708,-0.0024 0.03403,-0.0056 0.05078,-0.0098 0.0098,-0.0023 0.01961,-0.0049 0.0293,-0.0078 0.0059,-0.0012 0.01174,-0.0025 0.01758,-0.0039 0.231077,-0.07278 0.376742,-0.300744 0.345703,-0.541016 l 0,-6.261718 2.6875,1.148437 0,13.914063 -10.6875002,-4.570313 z m 22.3750002,0.00195 0,13.9140624 -10.6875,4.572266 0,-13.916016 z m -6.275391,11.4921874 -0.0059,0.002 c -0.06204,0.003 -0.122981,0.01761 -0.179688,0.04297 l -2.916015,1.246094 c -0.613281,0.261719 -0.220703,1.181641 0.392578,0.919922 l 2.917968,-1.246094 c 0.528154,-0.207276 0.357602,-0.994687 -0.208984,-0.964844 z m 2.910156,0.75 c -0.06138,0.0033 -0.121634,0.01784 -0.177734,0.04297 l -2.917969,1.246094 -2.916015,1.248046 c -0.613281,0.261719 -0.220703,1.181641 0.392578,0.919922 l 2.917968,-1.248046 2.916016,-1.248047 c 0.51545,-0.215437 0.343276,-0.985527 -0.214844,-0.960938 z" color="#000" font-family="sans-serif" font-weight="400" overflow="visible" white-space="normal" style="line-height:normal;text-indent:0;text-align:start;text-decoration-line:none;text-decoration-style:solid;text-decoration-color:#000;text-transform:none;block-progression:tb;isolation:auto;mix-blend-mode:normal"/></svg>