<svg width="32" height="32" viewBox="0 0 32 32" fill="none" xmlns="http://www.w3.org/2000/svg">
<path d="M11.5518 22.124L7.79897 19.8071L8.18658 18.7418L8.14228 18.7594C7.82026 18.8877 7.4803 18.9511 7.14238 18.9511C6.65883 18.9511 6.17725 18.8212 5.75179 18.5662C5.02954 18.1328 4.55013 17.3863 4.45615 16.5484L3.91871 11.7436C3.90964 11.6624 3.91792 11.584 3.91615 11.5039L1.67805 17.6561C1.35708 18.5382 1.60984 19.4024 1.84754 20.2396C1.89486 20.4062 3.42451 24.6546 3.42451 24.6546L0.370983 28.7857C-0.249922 29.6257 -0.0724826 30.8104 0.767987 31.4318C1.10591 31.6821 1.49976 31.8024 1.89144 31.8024C2.47114 31.8024 3.04348 31.5368 3.41406 31.0347L7.08015 26.0752C7.46236 25.5588 7.55529 24.8841 7.32935 24.2833L7.17281 23.8681L8.56794 24.7294L8.11284 29.7391C8.01886 30.7797 8.7854 31.6999 9.82651 31.7944C9.88467 31.7996 9.9427 31.8023 9.99974 31.8023C10.968 31.8023 11.7926 31.0637 11.8824 30.0812L12.443 23.9052C12.5074 23.191 12.1632 22.501 11.5518 22.124Z" fill="black"/>
<path d="M9.29069 11.1426L9.43428 12.4255L10.6178 11.954C11.0074 10.3671 10.1633 8.70899 8.59171 8.1375C7.09175 7.59099 5.45938 8.22405 4.68555 9.55655C5.10568 9.1286 5.66113 8.82853 6.3036 8.75676C7.79238 8.58734 9.12495 9.65907 9.29069 11.1426Z" fill="black"/>
<path d="M9.30751 6.88786C11.1553 6.88786 12.6526 5.39014 12.6526 3.54287C12.6526 1.6956 11.1554 0.197754 9.30751 0.197754C7.46076 0.197754 5.96344 1.6956 5.96344 3.54287C5.96344 5.39014 7.4607 6.88786 9.30751 6.88786Z" fill="black"/>
<path d="M30.5807 19.7925H20.5793C19.7958 19.7925 19.1602 20.4276 19.1602 21.2116V25.1987C19.1602 25.9827 19.7958 26.6178 20.5793 26.6178H30.5808C31.3643 26.6178 32 25.9826 32 25.1987V21.2116C31.9999 20.4276 31.3642 19.7925 30.5807 19.7925Z" fill="black"/>
<path d="M19.4305 17.8327H25.0057C25.7892 17.8327 26.4249 17.1976 26.4249 16.4135V12.862C26.4249 12.078 25.7892 11.4429 25.0057 11.4429H19.4305C18.647 11.4429 18.0114 12.078 18.0114 12.862V16.4135C18.0114 17.1976 18.647 17.8327 19.4305 17.8327Z" fill="black"/>
<path d="M29.2968 28.1046H16.8625V15.738C16.8625 15.1409 16.379 14.6568 15.7813 14.6568H15.2857H14.1553C14.3054 14.2838 14.321 13.8558 14.1605 13.4525C13.829 12.6199 12.8819 12.2182 12.054 12.5461L8.51778 13.9547L8.21574 11.2632C8.11651 10.3725 7.31297 9.72839 6.42387 9.83137C5.53372 9.93113 4.89284 10.7331 4.99312 11.6232L5.53063 16.4281C5.58662 16.9312 5.87381 17.379 6.30775 17.6392C6.56333 17.7923 6.8515 17.8699 7.14191 17.8699C7.34458 17.8699 7.54844 17.832 7.74165 17.7549L11.2655 16.3515C11.4613 16.6275 11.7675 16.8194 12.1321 16.8194H13.0134H14.7V29.186C14.7 29.7831 15.1836 30.2673 15.7813 30.2673H17.1012C17.2666 31.0851 17.989 31.7012 18.8561 31.7012C19.7231 31.7012 20.4454 31.0851 20.6108 30.2673H24.6699C24.8354 31.0851 25.5576 31.7012 26.4248 31.7012C27.2917 31.7012 28.0141 31.0851 28.1795 30.2673H29.2967C29.8944 30.2673 30.378 29.7831 30.378 29.186C30.3781 28.5888 29.8944 28.1046 29.2968 28.1046Z" fill="black"/>
</svg>
