<svg xmlns="http://www.w3.org/2000/svg" viewBox="0 0 16 16"><path d="M10,6h-7v-1c0,-1.6543 1.3457,-3 3,-3c1.6543,0 3,1.3457 3,3h2c0,-2.75684 -2.24316,-5 -5,-5c-2.75684,0 -5,2.24316 -5,5v1.27814c-0.59491,0.346863 -1,0.984741 -1,1.72186v6c0,1.10303 0.896973,2 2,2h8c1.10303,0 2,-0.896973 2,-2v-6c0,-1.10303 -0.896973,-2 -2,-2Zm-3,5.61072v1.38928h-2v-1.38928c-0.30481,-0.274536 -0.5,-0.668213 -0.5,-1.11072c0,-0.82843 0.67157,-1.5 1.5,-1.5c0.82843,0 1.5,0.67157 1.5,1.5c0,0.442505 -0.19519,0.836182 -0.5,1.11072Z" transform="translate(2)"/></svg>