<?xml version="1.0"?>
<svg xmlns="http://www.w3.org/2000/svg" id="Capa_1" enable-background="new 0 0 512 512" height="512px" viewBox="0 0 512 512" width="512px" class=""><g><path d="m294.761 225.235h39.856v87.442h-39.856z" fill="#b78e8e" data-original="#B78E8E"/><path d="m241.934 186.111h145.51v39.124h-145.51z" fill="#cbafaf" data-original="#CBAFAF"/><path d="m200.254 7.5v200.052h41.68v-21.441h145.51v21.441h41.681v-200.052z" fill="#efecef" data-original="#EFECEF" class=""/><path d="m200.254 187.552h41.68v20h-41.68z" fill="#d3ced5" data-original="#D3CED5" class=""/><path d="m389.124 7.5v103.951c0 36.981-26.383 67.79-61.351 74.659h59.67v21.441h41.68v-200.051z" fill="#d3ced5" data-original="#D3CED5" class=""/><path d="m360.869 69.343c-6.341-6.341-16.622-6.341-22.964 0l-37.116 37.116c-.073.073-.192.073-.265 0l-14.504-14.504c-6.341-6.341-16.622-6.341-22.964 0-6.341 6.341-6.341 16.622 0 22.964l24.099 24.099c7.456 7.456 19.545 7.456 27.001 0l46.711-46.711c6.344-6.342 6.344-16.623.002-22.964z" fill="#93c8a5" data-original="#93C8A5" class="" style="fill:#14CC60" data-old_color="#93c8a5"/><path d="m393.592 408.476h6.867c13.258 0 24.006-10.748 24.006-24.006s-10.748-24.006-24.006-24.006h-8.665c13.258 0 24.006-10.748 24.006-24.006s-10.748-24.006-24.006-24.006h-32.178v-24.006c0-13.258-10.748-24.006-24.006-24.006h-.994v48.236h-39.856v-48.236h-22.824c-30.088 0-57.59 11.07-78.655 29.36-8.213 7.131-18.829 10.882-29.705 10.882h-19.51v159.574h19.51c10.877 0 21.492 3.751 29.705 10.882 21.065 18.29 48.568 29.36 78.655 29.36h97.649c13.258 0 24.006-10.748 24.006-24.006s-10.748-24.006-24.006-24.006h24.006c13.258 0 24.006-10.748 24.006-24.006s-10.747-24.004-24.005-24.004z" fill="#f1d0a5" data-original="#F1D0A5" class=""/><path d="m353.592 397.81c0 47.877-38.812 86.69-86.69 86.69h-34.965c-11.332 0-22.296-1.572-32.688-4.506 20.175 15.375 45.365 24.506 72.688 24.506h97.649c13.258 0 24.006-10.748 24.006-24.006s-10.748-24.006-24.006-24.006h23.465c13.459 0 24.797-11.014 24.542-24.47-.247-13.044-10.899-23.542-24.002-23.542h6.327c13.459 0 24.797-11.014 24.542-24.47-.247-13.044-10.898-23.542-24.002-23.542h-8.665c13.103 0 23.754-10.498 24.002-23.542.255-13.456-11.084-24.47-24.542-24.47h-37.662v85.358z" fill="#f1b986" data-original="#F1B986" class=""/><path d="m82.876 291.479h61.191v185.982h-61.191z" fill="#a7a2d3" data-original="#A7A2D3" class="" style="fill:#FFE529" data-old_color="#a7a2d3"/><path d="m114.066 291.479v142.357c0 13.048-10.577 23.625-23.625 23.625h-7.566v20h61.191v-185.982z" fill="#8078bc" data-original="#8078BC" class="active-path" style="fill:#FFCE00" data-old_color="#8078bc"/><path d="m429.125 0h-228.872c-4.142 0-7.5 3.358-7.5 7.5v43.975c0 4.142 3.358 7.5 7.5 7.5s7.5-3.358 7.5-7.5v-36.475h213.871v185.052h-26.681v-13.941c0-4.142-3.358-7.5-7.5-7.5h-21.147c-4.142 0-7.5 3.358-7.5 7.5s3.358 7.5 7.5 7.5h13.647v24.124c-14.984 0-114.745 0-130.51 0v-24.124h81.863c4.142 0 7.5-3.358 7.5-7.5s-3.358-7.5-7.5-7.5h-89.363c-4.142 0-7.5 3.358-7.5 7.5v13.941h-26.681v-113.577c0-4.142-3.358-7.5-7.5-7.5s-7.5 3.358-7.5 7.5v121.077c0 4.142 3.358 7.5 7.5 7.5h34.181v10.183c0 4.142 3.358 7.5 7.5 7.5h45.327v24.205h-15.324c-30.721 0-60.401 11.079-83.572 31.197-6.716 5.832-15.52 9.045-24.79 9.045h-12.009v-5.703c0-4.142-3.358-7.5-7.5-7.5h-61.19c-4.142 0-7.5 3.358-7.5 7.5v17.79c0 4.142 3.358 7.5 7.5 7.5s7.5-3.358 7.5-7.5v-10.29h46.19v170.982h-46.19v-125.692c0-4.142-3.358-7.5-7.5-7.5s-7.5 3.358-7.5 7.5v133.192c0 4.142 3.358 7.5 7.5 7.5h61.19c4.142 0 7.5-3.358 7.5-7.5v-5.703h12.011c9.269 0 18.072 3.213 24.788 9.045 23.172 20.118 52.852 31.197 83.573 31.197h97.649c17.373 0 31.506-14.134 31.506-31.506 0-6.098-1.741-11.796-4.752-16.625 16.091-1.396 28.758-14.94 28.758-31.387 0-8.135-3.1-15.56-8.179-21.156 9.021-5.548 15.047-15.512 15.047-26.856 0-11.834-6.559-22.166-16.232-27.55 4.715-5.509 7.567-12.659 7.567-20.462 0-17.373-14.133-31.506-31.506-31.506h-24.678v-16.506c0-15.143-10.738-27.824-25-30.83v-24.882h45.327c4.142 0 7.5-3.358 7.5-7.5v-10.183h34.181c4.142 0 7.5-3.358 7.5-7.5v-200.051c0-4.142-3.358-7.5-7.5-7.5zm-37.33 319.952c9.102 0 16.506 7.404 16.506 16.506s-7.404 16.506-16.506 16.506c-.013 0-48.788 0-48.788 0-4.142 0-7.5 3.358-7.5 7.5s3.358 7.5 7.5 7.5h57.452c9.102 0 16.506 7.405 16.506 16.506s-7.404 16.506-16.506 16.506c-14.178 0-42.245 0-57.452 0-4.142 0-7.5 3.358-7.5 7.5s3.358 7.5 7.5 7.5h50.584c9.102 0 16.506 7.404 16.506 16.506s-7.404 16.506-16.506 16.506c-16.279 0-34.951 0-50.584 0-4.142 0-7.5 3.358-7.5 7.5s3.358 7.5 7.5 7.5h26.579c9.102 0 16.506 7.405 16.506 16.506s-7.404 16.506-16.506 16.506h-97.649c-27.108 0-53.295-9.775-73.738-27.523-9.444-8.201-21.74-12.719-34.621-12.719h-12.013v-144.576h12.011c12.882 0 25.177-4.518 34.622-12.719 20.443-17.749 46.63-27.523 73.738-27.523h15.324v33.012h-16.323c-4.142 0-7.5 3.358-7.5 7.5s3.358 7.493 7.5 7.5c24.801.044 120.959.004 120.858 0zm-39.678-31.506v16.506h-10v-31.675c5.876 2.53 10 8.377 10 15.169zm-25 16.506h-24.856v-72.217h24.856z" data-original="#000000" class=""/><path d="m319.461 144.321 46.711-46.711c9.255-9.255 9.255-24.314 0-33.57s-24.315-9.255-33.57 0l-31.945 31.945-9.333-9.333c-9.276-9.276-24.293-9.278-33.57 0-9.255 9.255-9.255 24.314 0 33.57l24.099 24.1c10.37 10.367 27.239 10.368 37.608-.001zm-51.1-47.063c3.413-3.414 8.941-3.415 12.356 0l14.504 14.504c2.998 2.998 7.875 2.997 10.872 0l37.116-37.116c3.407-3.406 8.95-3.406 12.357 0 3.414 3.414 3.415 8.942 0 12.357l-46.711 46.711c-4.521 4.52-11.875 4.52-16.395 0l-24.099-24.1c-3.414-3.413-3.416-8.941 0-12.356z" data-original="#000000" class=""/></g> </svg>
