<?xml version="1.0"?>
<svg xmlns="http://www.w3.org/2000/svg" id="Capa_1" enable-background="new 0 0 512 512" height="512px" viewBox="0 0 512 512" width="512px" class=""><g><g><path d="m82.792 467.256-38.347-108.648h303.11l-38.346 108.647c-3.761 10.655-13.832 17.78-25.131 17.78h-176.156c-11.299.001-21.37-7.125-25.13-17.779z" fill="#94d4a2" data-original="#94D4A2" class="" style="fill:#14CC60" data-old_color="#94d4a2"/><path d="m314.926 358.608h-270.481l9.722 27.545h234.645c8.002 0 13.599 7.912 10.936 15.457l-23.169 65.645c-3.76 10.655-13.832 17.78-25.131 17.78h32.63c11.299 0 21.37-7.125 25.131-17.78l38.346-108.647z" fill="#6dc17d" data-original="#6DC17D" class="" style="fill:#109E4B" data-old_color="#6dc17d"/><path d="m449.561 168.177-67.333-78.132c-10.807-12.54-27.512-18.317-43.757-15.132l-82.653 16.204c-4.696.921-9.545.684-14.128-.689l-35.556-10.65-21.842 72.917 176.617 50.515c8.481 2.355 17.165-.568 22.607-6.773l42.714 7.644z" fill="#faa68e" data-original="#FAA68E" class=""/><path d="m7.5 333.11v12.749c0 7.041 5.708 12.749 12.749 12.749h351.503c7.041 0 12.749-5.708 12.749-12.749v-12.749c0-7.041-5.708-12.749-12.749-12.749h-351.503c-7.041 0-12.749 5.708-12.749 12.749z" fill="#94d4a2" data-original="#94D4A2" class="" style="fill:#14CC60" data-old_color="#94d4a2"/><path d="m167.86 56.985-28.07 93.709 33.528 10.043c4.341 1.3 8.914-1.165 10.214-5.505l23.361-77.989c1.3-4.341-1.165-8.914-5.505-10.214z" fill="#e3e0e4" data-original="#E3E0E4" class=""/><path d="m180.931 135.326-33.528-10.043-7.612 25.411 33.528 10.043c4.341 1.3 8.914-1.165 10.214-5.505l7.027-23.46c-.978 3.263-5.289 4.854-9.629 3.554z" fill="#c5bec6" data-original="#C5BEC6" class=""/><path d="m168.702 54.177-34.279 114.438c-.974 3.251-4.398 5.097-7.649 4.123l-64.438-19.302c-3.251-.974-5.097-4.398-4.123-7.649l34.279-114.438c.974-3.251 4.398-5.097 7.649-4.123l64.438 19.302c3.25.974 5.096 4.398 4.123 7.649z" fill="#eec06b" data-original="#EEC06B" class="active-path" style="fill:#F7C22C" data-old_color="#eec06b"/><path d="m136.155 141.419-64.438-19.302c-3.25-.974-5.292-3.744-4.561-6.188l-8.944 29.858c-.974 3.251.872 6.675 4.123 7.649l64.438 19.302c3.251.974 6.675-.872 7.649-4.123l8.944-29.858c-.732 2.444-3.96 3.636-7.211 2.662z" fill="#e9a761" data-original="#E9A761" class="" style="fill:#e9a761" data-old_color="#e9a761"/><g><path d="m504.5 139.986v281.787c0 7.735-6.27 14.005-14.005 14.005h-161.796c-7.735 0-14.005-6.27-14.005-14.005v-281.788c0-1.834 2.169-2.804 3.536-1.582l14.569 13.025c3.204 2.865 8.049 2.865 11.253 0l12.477-11.155c3.205-2.865 8.05-2.865 11.254.001l12.467 11.151c3.204 2.866 8.05 2.866 11.254.001l12.475-11.154c3.205-2.865 8.05-2.865 11.254.001l12.467 11.151c3.204 2.866 8.05 2.866 11.254.001l12.475-11.154c3.205-2.865 8.05-2.865 11.254.001l12.466 11.15c3.205 2.866 8.051 2.866 11.256 0l14.556-13.02c1.37-1.219 3.539-.249 3.539 1.584z" fill="#e3e0e4" data-original="#E3E0E4" class=""/><path d="m500.964 138.405-14.556 13.02c-.748.669-1.588 1.176-2.473 1.532v268.816c0 7.735-6.27 14.005-14.005 14.005h20.566c7.735 0 14.005-6.27 14.005-14.005v-281.787c-.001-1.833-2.17-2.803-3.537-1.581z" fill="#c5bec6" data-original="#C5BEC6" class=""/></g><path d="m251.387 172.793 109.523 30.418c11.781 3.272 23.989-3.607 27.292-15.38 3.235-11.529-3.265-23.544-14.684-27.145l-109.508-34.538z" fill="#faa68e" data-original="#FAA68E" class=""/><g><path d="m132.345 393.771c-4.143 0-7.5 3.358-7.5 7.5v8.564c0 4.142 3.357 7.5 7.5 7.5s7.5-3.358 7.5-7.5v-8.564c0-4.142-3.358-7.5-7.5-7.5z" data-original="#000000" class="" style="fill:#000000"/><path d="m196 393.771c-4.143 0-7.5 3.358-7.5 7.5v8.564c0 4.142 3.357 7.5 7.5 7.5s7.5-3.358 7.5-7.5v-8.564c0-4.142-3.357-7.5-7.5-7.5z" data-original="#000000" class="" style="fill:#000000"/><path d="m259.656 393.771c-4.143 0-7.5 3.358-7.5 7.5v8.564c0 4.142 3.357 7.5 7.5 7.5s7.5-3.358 7.5-7.5v-8.564c0-4.142-3.357-7.5-7.5-7.5z" data-original="#000000" class="" style="fill:#000000"/><path d="m164.173 426.054c-4.143 0-7.5 3.358-7.5 7.5v8.564c0 4.142 3.357 7.5 7.5 7.5s7.5-3.358 7.5-7.5v-8.564c0-4.142-3.358-7.5-7.5-7.5z" data-original="#000000" class="" style="fill:#000000"/><path d="m227.828 426.054c-4.143 0-7.5 3.358-7.5 7.5v8.564c0 4.142 3.357 7.5 7.5 7.5s7.5-3.358 7.5-7.5v-8.564c0-4.142-3.357-7.5-7.5-7.5z" data-original="#000000" class="" style="fill:#000000"/><path d="m504.5 278.603c4.143 0 7.5-3.358 7.5-7.5v-131.24c0-3.788-2.232-7.236-5.687-8.786-3.452-1.548-7.515-.924-10.354 1.607l-14.548 13.018c-.364.327-.896.327-1.26.002l-12.472-11.161c-6.054-5.394-15.185-5.395-21.252.011l-8.936 7.997-49.581-57.536c-12.536-14.541-32.034-21.282-50.885-17.593l-82.645 16.211c-3.487.683-7.132.505-10.539-.514l-29.113-8.719c-.157-6.615-4.513-12.684-11.187-14.683l-27.108-8.12c-.1-2-.629-3.969-1.607-5.784-1.729-3.208-4.604-5.551-8.095-6.597l-64.438-19.302c-3.968-1.188-8.148 1.064-9.337 5.033-1.188 3.968 1.064 8.148 5.032 9.336l63.14 18.913-33.501 111.841-63.139-18.913c-3.967-1.188-8.148 1.064-9.337 5.033-1.188 3.968 1.064 8.148 5.032 9.336l64.438 19.302c1.295.388 2.617.58 3.933.58 2.229 0 4.438-.552 6.456-1.64 3.208-1.729 5.551-4.604 6.597-8.096l3.216-10.736 26.344 7.891c1.498.449 3.01.662 4.498.662 5.175 0 10.049-2.588 12.967-6.85 0 0 58.498 17.322 118.558 34.341v116.786h-47.728l-33.802-83.378c-1.556-3.838-5.928-5.689-9.768-4.133-3.839 1.556-5.689 5.93-4.133 9.769l31.517 77.742h-94.554l31.517-77.742c1.557-3.839-.294-8.212-4.133-9.769-3.84-1.557-8.212.295-9.768 4.133l-33.802 83.378h-26.516c-4.143 0-7.5 3.358-7.5 7.5s3.357 7.5 7.5 7.5h201.171v23.25h-286.941c-2.895 0-5.25-2.355-5.25-5.25v-12.75c0-2.895 2.355-5.25 5.25-5.25h50.77c4.143 0 7.5-3.358 7.5-7.5s-3.357-7.5-7.5-7.5h-50.77c-11.166 0-20.25 9.084-20.25 20.25v12.75c0 11.166 9.084 20.25 20.25 20.25h18.894l36.573 103.635c4.808 13.628 17.748 22.785 32.203 22.785h176.16c14.455 0 27.396-9.157 32.202-22.783l9.426-26.7c.98.137 1.974.233 2.992.233h161.8c11.855 0 21.5-9.649 21.5-21.51v-115.54c0-4.142-3.357-7.5-7.5-7.5s-7.5 3.358-7.5 7.5v115.54c0 3.589-2.916 6.51-6.5 6.51h-161.8c-3.59 0-6.51-2.92-6.51-6.51v-221.53l25.516 7.086c.164 3.997 3.447 7.189 7.484 7.189h54.071c4.143 0 7.5-3.358 7.5-7.5s-3.357-7.5-7.5-7.5h-18.606c2.109-2.83 3.76-6.068 4.768-9.661 3-10.695-.167-21.597-7.458-28.928 3.077-.407 6.062-1.698 8.533-3.907l12.48-11.159c.351-.313.9-.313 1.249-.002l12.474 11.163c4.428 3.956 10.586 5.105 16.164 3.048.091-.031.181-.062.271-.096.025-.01.051-.017.076-.027.051-.02.099-.046.15-.067.13-.055.259-.113.388-.173 1.521-.705 2.953-1.565 4.211-2.688l12.457-11.149c.366-.325.916-.326 1.271-.011l12.462 11.152c6.059 5.418 15.199 5.418 21.26-.002l5.589-5.001v119.222c0 4.144 3.357 7.501 7.5 7.501zm-202.363 186.026c-2.694 7.641-9.951 12.774-18.057 12.774h-176.16c-8.105 0-15.362-5.134-18.058-12.776l-34.812-98.644h252.14v55.66c0 5.333 1.963 10.209 5.189 13.972zm-126.665-311.204-26.344-7.891 23.766-79.339 26.343 7.891c.373.112.585.505.474.877l-.739 2.466c-.008.025-.018.048-.026.073s-.011.05-.019.075l-21.819 72.842c-.009.028-.02.054-.028.083-.005.017-.007.034-.012.052l-.719 2.399c-.113.371-.509.583-.877.472zm211.03-7.714c-.351.314-.903.314-1.25.003l-12.474-11.163c-6.057-5.413-15.19-5.414-21.249.002l-9.259 8.284-11.864-3.742-7.187-6.424c-2.827-2.518-6.888-3.145-10.345-1.595-.95.426-1.796 1.007-2.541 1.688l-12.09-3.813c-3.954-1.248-8.163.947-9.408 4.897-1.246 3.95.946 8.163 4.896 9.409l77.53 24.452c7.604 2.399 11.873 10.291 9.72 17.967-2.182 7.774-10.28 12.343-18.064 10.18 0 0-38.746-10.947-169.26-48.415l17.509-58.451 28.374 8.498c5.729 1.713 11.855 2.012 17.724.864l82.646-16.209c13.567-2.657 27.613 2.197 36.639 12.666l30.89 35.846c-3.051.418-6.007 1.707-8.457 3.898zm-17.557 5.54-10.042-3.167 2.625-2.349c.352-.313.904-.314 1.25-.003z" data-original="#000000" class="" style="fill:#000000"/><path d="m374.844 411.755c4.143 0 7.5-3.358 7.5-7.5v-4.46c8.861-2.533 15.373-10.688 15.373-20.351 0-11.679-9.501-21.18-21.18-21.18h-3.382c-3.408 0-6.181-2.772-6.181-6.18s2.772-6.18 6.181-6.18h14.605c4.143 0 7.5-3.358 7.5-7.5s-3.357-7.5-7.5-7.5h-5.417v-3.634c0-4.142-3.357-7.5-7.5-7.5s-7.5 3.358-7.5 7.5v4.464c-8.859 2.534-15.369 10.688-15.369 20.35 0 11.679 9.502 21.18 21.181 21.18h3.382c3.407 0 6.18 2.772 6.18 6.18s-2.772 6.18-6.18 6.18h-1.635c-.02 0-.039-.003-.058-.003s-.039.003-.058.003h-12.854c-4.143 0-7.5 3.358-7.5 7.5s3.357 7.5 7.5 7.5h5.412v3.631c0 4.142 3.357 7.5 7.5 7.5z" data-original="#000000" class="" style="fill:#000000"/><path d="m426.23 385.624c-4.143 0-7.5 3.358-7.5 7.5s3.357 7.5 7.5 7.5h36.928c4.143 0 7.5-3.358 7.5-7.5s-3.357-7.5-7.5-7.5z" data-original="#000000" class="" style="fill:#000000"/><path d="m467.443 199.39h-11.638c-4.143 0-7.5 3.358-7.5 7.5s3.357 7.5 7.5 7.5h11.638c4.143 0 7.5-3.358 7.5-7.5s-3.357-7.5-7.5-7.5z" data-original="#000000" class="" style="fill:#000000"/><path d="m467.443 235.554h-11.638c-4.143 0-7.5 3.358-7.5 7.5s3.357 7.5 7.5 7.5h11.638c4.143 0 7.5-3.358 7.5-7.5s-3.357-7.5-7.5-7.5z" data-original="#000000" class="" style="fill:#000000"/><path d="m409.262 235.554h-54.072c-4.143 0-7.5 3.358-7.5 7.5s3.357 7.5 7.5 7.5h54.071c4.143 0 7.5-3.358 7.5-7.5s-3.357-7.5-7.499-7.5z" data-original="#000000" class="" style="fill:#000000"/><path d="m474.943 279.217c0-4.142-3.357-7.5-7.5-7.5h-11.638c-4.143 0-7.5 3.358-7.5 7.5s3.357 7.5 7.5 7.5h11.638c4.143 0 7.5-3.358 7.5-7.5z" data-original="#000000" class="" style="fill:#000000"/><path d="m416.762 279.217c0-4.142-3.357-7.5-7.5-7.5h-54.072c-4.143 0-7.5 3.358-7.5 7.5s3.357 7.5 7.5 7.5h54.071c4.143 0 7.501-3.358 7.501-7.5z" data-original="#000000" class="" style="fill:#000000"/></g></g></g> </svg>
