<?xml version="1.0"?>
<svg xmlns="http://www.w3.org/2000/svg" height="512px" viewBox="0 0 512 512.001" width="512px" class=""><g><path d="m478.355469 504.507812h-445.386719c-14.070312 0-25.476562-11.40625-25.476562-25.476562l.003906-446.0625c0-14.070312 11.40625-25.476562 25.476562-25.476562h445.386719c14.074219 0 25.480469 11.40625 25.480469 25.476562l-.003906 446.0625c0 14.070312-11.40625 25.476562-25.480469 25.476562zm0 0" fill="#fff5f5" data-original="#FFF5F5" class=""/><path d="m503.835938 32.96875-.003907 446.058594c0 14.074218-11.40625 25.480468-25.472656 25.480468h-31.042969c14.074219 0 25.480469-11.40625 25.480469-25.480468l.003906-446.058594c0-14.066406-11.40625-25.472656-25.480469-25.472656h31.042969c14.0625 0 25.472657 11.40625 25.472657 25.472656zm0 0" fill="#efe2dd" data-original="#EFE2DD" class=""/><path d="m503.839844 94.414062h-496.34375v-61.445312c0-14.070312 11.40625-25.476562 25.476562-25.476562h445.386719c14.074219 0 25.480469 11.40625 25.480469 25.476562zm0 0" fill="#c9f0ff" data-original="#C9F0FF" class="" style="fill:#14CC60" data-old_color="#c9f0ff"/><path d="m450.699219 238.414062h-390.066407c-2.757812 0-4.992187-2.234374-4.992187-4.992187v-94.453125c0-2.757812 2.234375-4.992188 4.992187-4.992188h390.066407c2.757812 0 4.992187 2.234376 4.992187 4.992188v94.453125c0 2.757813-2.234375 4.992187-4.992187 4.992187zm0 0" fill="#f3cc50" data-original="#F3CC50" class=""/><path d="m455.6875 138.972656v94.453125c0 2.757813-2.226562 4.996094-4.992188 4.996094h-24.582031c2.757813 0 4.992188-2.238281 4.992188-4.996094v-94.453125c0-2.757812-2.234375-4.992187-4.992188-4.992187h24.582031c2.765626 0 4.992188 2.234375 4.992188 4.992187zm0 0" fill="#f7c22c" data-original="#F7C22C" class=""/><path d="m503.835938 32.96875v61.449219h-31.035157v-61.449219c0-14.066406-11.40625-25.472656-25.480469-25.472656h31.042969c14.0625 0 25.472657 11.40625 25.472657 25.472656zm0 0" fill="#9ae7fd" data-original="#9AE7FD" class="active-path" style="fill:#449553" data-old_color="#9ae7fd"/><path d="m511.328125 32.96875c0-18.179688-14.789063-32.96875-32.96875-32.96875h-445.386719c-18.179687 0-32.96874975 14.789062-32.96874975 32.96875l-.00390625 394.835938c0 4.136718 3.355469 7.492187 7.492188 7.492187 4.136718 0 7.492187-3.355469 7.492187-7.492187v-325.898438h481.363281l-.003906 377.125c0 9.917969-8.066406 17.988281-17.988281 17.988281h-445.386719c-9.917969 0-17.984375-8.070312-17.984375-17.988281v-16.433594c0-4.136718-3.355469-7.488281-7.492187-7.488281-4.136719 0-7.492188 3.351563-7.492188 7.488281v16.433594c0 18.179688 14.792969 32.96875 32.96875 32.96875h445.386719c18.179687 0 32.972656-14.789062 32.972656-32.96875zm-496.34375 53.953125v-53.953125c0-9.914062 8.070313-17.984375 17.988281-17.984375h445.386719c9.917969 0 17.988281 8.066406 17.988281 17.984375v53.953125zm0 0" data-original="#000000" class=""/><path d="m69.753906 50.28125c0 8.003906-6.488281 14.496094-14.496094 14.496094-8.003906 0-14.492187-6.492188-14.492187-14.496094s6.488281-14.492188 14.492187-14.492188c8.007813 0 14.496094 6.488282 14.496094 14.492188zm0 0" fill="#ef6161" data-original="#EF6161" class=""/><path d="m125.726562 50.28125c0 8.003906-6.488281 14.496094-14.492187 14.496094s-14.496094-6.492188-14.496094-14.496094 6.492188-14.492188 14.496094-14.492188 14.492187 6.488282 14.492187 14.492188zm0 0" fill="#f3cc50" data-original="#F3CC50" class=""/><path d="m181.699219 50.28125c0 8.003906-6.488281 14.496094-14.492188 14.496094-8.003906 0-14.492187-6.492188-14.492187-14.496094s6.488281-14.492188 14.492187-14.492188c8.003907 0 14.492188 6.488282 14.492188 14.492188zm0 0" fill="#baed6a" data-original="#BAED6A" class=""/><path d="m69.75 50.289062c0 8-6.484375 14.480469-14.484375 14.480469-3.875 0-7.402344-1.515625-10-4.003906 7.84375-.167969 14.15625-6.582031 14.15625-14.472656 0-4.136719-1.730469-7.851563-4.496094-10.488281.109375-.011719.230469-.011719.339844-.011719 8 0 14.484375 6.484375 14.484375 14.496093zm0 0" fill="#ea4444" data-original="#EA4444" class=""/><path d="m125.726562 50.289062c0 8-6.484374 14.480469-14.496093 14.480469-3.875 0-7.390625-1.515625-9.996094-4.003906 7.851563-.167969 14.164063-6.582031 14.164063-14.472656 0-4.136719-1.730469-7.851563-4.496094-10.488281.109375-.011719.21875-.011719.328125-.011719 8.011719 0 14.496093 6.484375 14.496093 14.496093zm0 0" fill="#f7c22c" data-original="#F7C22C" class=""/><path d="m181.699219 50.289062c0 8-6.492188 14.480469-14.492188 14.480469-3.875 0-7.390625-1.515625-10-4.003906 7.851563-.167969 14.15625-6.582031 14.15625-14.472656 0-4.136719-1.726562-7.851563-4.496093-10.488281.109374-.011719.230468-.011719.339843-.011719 8 0 14.492188 6.484375 14.492188 14.496093zm0 0" fill="#a3e72d" data-original="#A3E72D" class=""/><path d="m55.257812 72.265625c-12.121093 0-21.984374-9.859375-21.984374-21.984375 0-12.121094 9.863281-21.984375 21.984374-21.984375 12.125 0 21.988282 9.863281 21.988282 21.984375 0 12.125-9.863282 21.984375-21.988282 21.984375zm0-28.984375c-3.859374 0-7 3.140625-7 7 0 3.863281 3.140626 7.003906 7 7.003906 3.863282 0 7.003907-3.140625 7.003907-7.003906 0-3.859375-3.140625-7-7.003907-7zm0 0" data-original="#000000" class=""/><path d="m111.234375 72.265625c-12.125 0-21.984375-9.859375-21.984375-21.984375 0-12.121094 9.859375-21.984375 21.984375-21.984375 12.121094 0 21.984375 9.863281 21.984375 21.984375 0 12.125-9.863281 21.984375-21.984375 21.984375zm0-28.984375c-3.863281 0-7.003906 3.140625-7.003906 7 0 3.863281 3.140625 7.003906 7.003906 7.003906 3.859375 0 7-3.140625 7-7.003906 0-3.859375-3.140625-7-7-7zm0 0" data-original="#000000" class=""/><path d="m167.207031 72.265625c-12.121093 0-21.984375-9.859375-21.984375-21.984375 0-12.121094 9.863282-21.984375 21.984375-21.984375 12.121094 0 21.984375 9.863281 21.984375 21.984375 0 12.125-9.863281 21.984375-21.984375 21.984375zm0-28.984375c-3.859375 0-7 3.140625-7 7 0 3.863281 3.140625 7.003906 7 7.003906s7-3.140625 7-7.003906c0-3.859375-3.140625-7-7-7zm0 0" data-original="#000000" class=""/><path d="m169.265625 296.148438h-114.007813c-4.136718 0-7.488281-3.351563-7.488281-7.488282 0-4.136718 3.351563-7.492187 7.488281-7.492187h114.007813c4.136719 0 7.488281 3.355469 7.488281 7.492187 0 4.136719-3.351562 7.488282-7.488281 7.488282zm0 0" data-original="#000000" class=""/><path d="m220.332031 296.148438h-15.855469c-4.136718 0-7.492187-3.351563-7.492187-7.488282 0-4.136718 3.355469-7.492187 7.492187-7.492187h15.855469c4.136719 0 7.492188 3.355469 7.492188 7.492187 0 4.136719-3.355469 7.488282-7.492188 7.488282zm0 0" data-original="#000000" class=""/><path d="m97.847656 343.71875h-42.589844c-4.136718 0-7.488281-3.355469-7.488281-7.492188 0-4.136718 3.351563-7.492187 7.488281-7.492187h42.589844c4.136719 0 7.488282 3.355469 7.488282 7.492187 0 4.136719-3.351563 7.492188-7.488282 7.492188zm0 0" data-original="#000000" class=""/><path d="m220.332031 343.71875h-88.160156c-4.136719 0-7.492187-3.355469-7.492187-7.492188 0-4.136718 3.355468-7.492187 7.492187-7.492187h88.160156c4.136719 0 7.488281 3.355469 7.488281 7.492187 0 4.136719-3.351562 7.492188-7.488281 7.492188zm0 0" data-original="#000000" class=""/><path d="m123.816406 373.339844h-68.558594c-4.136718 0-7.488281-3.355469-7.488281-7.492188 0-4.136718 3.351563-7.492187 7.488281-7.492187h68.558594c4.136719 0 7.492188 3.355469 7.492188 7.492187 0 4.136719-3.355469 7.492188-7.492188 7.492188zm0 0" data-original="#000000" class=""/><path d="m220.332031 373.339844h-62.554687c-4.136719 0-7.492188-3.355469-7.492188-7.492188 0-4.136718 3.355469-7.492187 7.492188-7.492187h62.554687c4.136719 0 7.488281 3.355469 7.488281 7.492187 0 4.136719-3.351562 7.492188-7.488281 7.492188zm0 0" data-original="#000000" class=""/><path d="m123.816406 428.378906h-68.558594c-4.136718 0-7.488281-3.355468-7.488281-7.492187s3.351563-7.492188 7.488281-7.492188h68.558594c4.136719 0 7.492188 3.355469 7.492188 7.492188s-3.355469 7.492187-7.492188 7.492187zm0 0" data-original="#000000" class=""/><path d="m220.332031 428.378906h-62.554687c-4.136719 0-7.492188-3.355468-7.492188-7.492187s3.355469-7.492188 7.492188-7.492188h62.554687c4.136719 0 7.488281 3.355469 7.488281 7.492188s-3.351562 7.492187-7.488281 7.492187zm0 0" data-original="#000000" class=""/><path d="m97.847656 400.652344h-42.589844c-4.136718 0-7.488281-3.355469-7.488281-7.492188 0-4.136718 3.351563-7.488281 7.488281-7.488281h42.589844c4.136719 0 7.488282 3.351563 7.488282 7.488281 0 4.136719-3.351563 7.492188-7.488282 7.492188zm0 0" data-original="#000000" class=""/><path d="m220.332031 400.652344h-88.160156c-4.136719 0-7.492187-3.355469-7.492187-7.492188 0-4.136718 3.355468-7.488281 7.492187-7.488281h88.160156c4.136719 0 7.488281 3.351563 7.488281 7.488281.003907 4.136719-3.351562 7.492188-7.488281 7.492188zm0 0" data-original="#000000" class=""/><path d="m450.699219 370.167969h-123.113281c-2.757813 0-4.996094-2.238281-4.996094-4.996094v-28.3125c0-2.757813 2.238281-4.992187 4.996094-4.992187h123.113281c2.757812 0 4.992187 2.234374 4.992187 4.992187v28.3125c0 2.757813-2.234375 4.996094-4.992187 4.996094zm0 0" fill="#f3cc50" data-original="#F3CC50" class=""/><path d="m455.6875 336.859375v28.316406c0 2.757813-2.226562 4.996094-4.992188 4.996094h-12.484374c2.765624 0 4.992187-2.238281 4.992187-4.996094v-28.316406c0-2.757813-2.226563-4.996094-4.992187-4.996094h12.484374c2.765626 0 4.992188 2.238281 4.992188 4.996094zm0 0" fill="#f7c22c" data-original="#F7C22C" class=""/><path d="m450.699219 126.484375h-390.066407c-6.882812 0-12.484374 5.601563-12.484374 12.484375v94.453125c0 6.882813 5.601562 12.484375 12.484374 12.484375h103.46875c4.136719 0 7.492188-3.351562 7.492188-7.492188 0-4.136718-3.355469-7.488281-7.492188-7.488281h-100.96875v-89.457031h385.070313v89.457031h-249.304687c-4.136719 0-7.492188 3.351563-7.492188 7.488281 0 4.136719 3.351562 7.492188 7.492188 7.492188h251.800781c6.886719 0 12.484375-5.601562 12.484375-12.484375v-94.453125c0-6.882812-5.601563-12.484375-12.484375-12.484375zm0 0" data-original="#000000" class=""/><path d="m378.703125 367.171875-12.066406 48.253906c-1.074219 4.300781 3.265625 7.949219 7.316406 6.15625l10.460937-4.640625c2.683594-1.191406 5.828126.019532 7.019532 2.707032l9.875 22.273437c1.191406 2.683594 4.332031 3.898437 7.019531 2.707031l15.558594-6.898437c2.683593-1.191407 3.894531-4.335938 2.707031-7.019531l-9.878906-22.273438c-1.191406-2.6875.023437-5.828125 2.707031-7.019531l10.460937-4.640625c4.050782-1.792969 4.257813-7.460938.355469-9.550782l-43.867187-23.457031c-3.050782-1.632812-6.828125.042969-7.667969 3.402344zm0 0" fill="#ea4444" data-original="#EA4444" class=""/><path d="m429.886719 396.777344-10.46875 4.636718c-2.683594 1.199219-3.894531 4.335938-2.703125 7.023438l9.875 22.273438c1.191406 2.6875-.019532 5.824218-2.707032 7.023437l-7.589843 3.363281c.25-1.085937.167969-2.253906-.320313-3.355468-3.777344-8.484376-8.175781-16.683594-12.039062-25.101563-.695313-1.519531-1.433594-2.996094-1.601563-4.707031-.132812-1.332032.097657-2.664063.550781-3.914063 1.363282-3.742187 5.429688-6.289062 5.71875-10.457031.3125-4.453125-2.851562-6.605469-6.152343-8.867188-4.183594-2.867187-21.128907-10.917968-24.890625-12.925781l1.148437-4.59375c.839844-3.367187 4.613281-5.035156 7.660157-3.40625l43.871093 23.453125c3.90625 2.09375 3.695313 7.757813-.351562 9.554688zm0 0" fill="#d93131" data-original="#D93131" class="" style="fill:#D93131"/><path d="m450.699219 324.375h-123.113281c-6.886719 0-12.488282 5.601562-12.488282 12.488281v28.3125c0 6.882813 5.601563 12.484375 12.488282 12.484375h40.773437l-8.992187 35.949219c-1.199219 4.789063.40625 9.734375 4.183593 12.914063 3.777344 3.175781 8.925781 3.90625 13.4375 1.90625l8.476563-3.757813 8.996094 20.285156c1.386718 3.128907 3.90625 5.53125 7.101562 6.761719 1.496094.578125 3.054688.863281 4.613281.863281 1.761719 0 3.523438-.367187 5.1875-1.105469l15.558594-6.898437c3.128906-1.386719 5.527344-3.910156 6.757813-7.101563 1.234374-3.191406 1.148437-6.671874-.242188-9.800781l-8.996094-20.289062 8.480469-3.757813c4.511719-2 7.425781-6.308594 7.609375-11.238281.179688-4.933594-2.410156-9.445313-6.761719-11.769531l-5.539062-2.960938h22.464843c6.886719 0 12.488282-5.601562 12.488282-12.484375v-28.3125c0-6.886719-5.601563-12.488281-12.484375-12.488281zm-40.832031 87.097656 8.996093 20.289063-11.585937 5.136719-8.996094-20.289063c-1.386719-3.125-3.90625-5.527344-7.101562-6.757813-1.496094-.578124-3.054688-.867187-4.613282-.867187-1.765625 0-3.527344.371094-5.1875 1.109375l-6.394531 2.835938 10.3125-41.238282 37.484375 20.042969-6.394531 2.835937c-6.457031 2.863282-9.382813 10.445313-6.519531 16.902344zm38.335937-48.796875h-47.992187l-10.304688-5.511719c-3.507812-1.875-7.601562-2.027343-11.234375-.414062-2.746094 1.21875-4.921875 3.308594-6.238281 5.925781h-42.351563v-23.320312h118.121094zm0 0" data-original="#000000" class=""/></g> </svg>
