<svg width="1440" height="140" viewBox="0 0 1440 140" fill="none" xmlns="http://www.w3.org/2000/svg">
<g style="mix-blend-mode:multiply">
<path d="M0.998596 93C36.283 67 137.609 18.2 260.638 31C414.425 47 424.411 63 522.275 63C620.139 63 718.003 11 779.917 6.99998C841.832 2.99998 965.66 31 1025.58 31C1085.49 31 1149.4 31 1237.28 6.99998C1307.59 -12.2 1402.39 15 1441 31V141H0.998596V93Z" fill="#14CC60"/>
</g>
<g style="mix-blend-mode:multiply">
<path d="M299.584 47.9015C158.101 37.0682 41.5756 78.3701 0.998596 100.375V141H1441V21C1339.94 41.3124 1248.17 47.9015 1179.26 47.9015C1110.36 47.9015 967.956 24.2037 896.755 27.5891C825.554 30.9745 713.01 74.9847 600.467 74.9847C487.923 74.9847 476.439 61.4431 299.584 47.9015Z" fill="#E4E4F2"/>
</g>
<g style="mix-blend-mode:multiply">
<path d="M0 112.483C40.9716 94.9029 99.9609 60.5591 235.882 68.8396C405.784 79.1902 416.816 89.5408 524.935 89.5408C633.055 89.5408 741.174 55.9014 809.576 53.3137C877.978 50.7261 1014.78 68.8396 1080.98 68.8396C1147.17 68.8396 1217.78 68.8396 1314.87 53.3137C1392.54 40.893 1397.34 36.3979 1440 46.7485V140H0V112.483Z" fill="#E7D2F8"/>
</g>
</svg>
