<svg width="1140" height="141" viewBox="0 0 1140 141" fill="none" xmlns="http://www.w3.org/2000/svg">
<g style="mix-blend-mode:multiply">
<path d="M0.790039 92.8647C28.7041 66.7914 108.865 17.8539 206.195 30.69C327.859 46.7351 335.759 62.7802 413.181 62.7802C490.603 62.7802 568.025 10.6336 617.006 6.62235C665.988 2.61108 763.95 30.69 811.351 30.69C858.753 30.69 909.314 30.69 978.836 6.62235C1034.45 -12.6318 1109.45 14.6449 1140 30.69V141H0.790039V92.8647Z" fill="#14CC60"/>
</g>
<g style="mix-blend-mode:multiply">
<path d="M237.006 47.6391C125.076 36.7753 32.8912 78.1936 0.790039 100.261V141H1140V20.6619C1060.05 41.0315 987.447 47.6391 932.935 47.6391C878.424 47.6391 765.767 23.8746 709.439 27.2695C653.11 30.6645 564.075 74.7987 475.04 74.7987C386.004 74.7987 376.919 61.2189 237.006 47.6391Z" fill="#E4E4F2"/>
</g>
<g style="mix-blend-mode:multiply">
<path d="M0 112.403C32.4133 94.7731 79.0808 60.3325 186.61 68.6363C321.023 79.0161 329.751 89.3959 415.286 89.3959C500.821 89.3959 586.355 55.6616 640.469 53.0667C694.583 50.4717 802.811 68.6363 855.18 68.6363C907.548 68.6363 963.408 68.6363 1040.21 53.0667C1101.66 40.6109 1105.46 36.1032 1139.21 46.483V139.997H0V112.403Z" fill="#E7D2F8"/>
</g>
</svg>
